<svg width="756" height="98" viewBox="0 0 756 98" fill="none" xmlns="http://www.w3.org/2000/svg">
<path d="M11.3702 13.6H18.4542V78H11.3702V13.6ZM60.9949 47.916C60.9949 43.1933 60.1362 39.82 58.4189 37.796C56.7629 35.7107 54.4935 34.668 51.6109 34.668C49.4029 34.668 47.0722 35.4347 44.6189 36.968C42.1655 38.44 39.3442 40.924 36.1549 44.42L36.0629 42.672C39.4975 38.5013 42.6869 35.4347 45.6309 33.472C48.6362 31.448 51.6415 30.436 54.6469 30.436C58.2655 30.436 61.3015 31.816 63.7549 34.576C66.2082 37.336 67.4349 41.9053 67.4349 48.284V78H60.9949V47.916ZM30.4509 44.052L29.1629 31.908L35.5109 30.896L36.9829 43.04V78H30.4509V44.052ZM92.2892 79.012C88.9159 79.012 85.7266 78.4293 82.7212 77.264C79.7159 76.0987 77.0786 74.7493 74.8092 73.216L73.7972 67.328C73.7359 66.7147 73.8279 66.224 74.0732 65.856C74.3799 65.488 74.7786 65.304 75.2692 65.304C75.7599 65.2427 76.2506 65.396 76.7412 65.764C79.8692 68.5853 83.2732 70.9467 86.9532 72.848C90.6332 74.688 93.9759 75.608 96.9812 75.608C99.1892 75.608 100.999 75.056 102.409 73.952C103.82 72.848 104.525 71.4067 104.525 69.628C104.525 68.0947 104.004 66.684 102.961 65.396C101.919 64.108 100.385 62.7893 98.3612 61.44C96.3372 60.0907 93.4852 58.3733 89.8052 56.288C86.6159 54.448 84.0706 52.8533 82.1692 51.504C80.2679 50.1547 78.7346 48.652 77.5692 46.996C76.4039 45.2787 75.8212 43.3467 75.8212 41.2C75.8212 38.0107 77.0786 35.4347 79.5932 33.472C82.1079 31.448 85.6652 30.436 90.2652 30.436C94.3132 30.436 98.6986 31.2947 103.421 33.012L104.157 37.98C104.28 38.716 104.188 39.2987 103.881 39.728C103.636 40.1573 103.237 40.4027 102.685 40.464C102.195 40.464 101.673 40.2493 101.121 39.82C98.4226 37.796 95.7546 36.14 93.1172 34.852C90.5412 33.564 88.1186 32.92 85.8492 32.92C83.7639 32.92 82.1079 33.38 80.8812 34.3C79.6546 35.22 79.0412 36.4467 79.0412 37.98C79.0412 40.0653 80.1452 42.028 82.3532 43.868C84.6226 45.708 87.8426 47.732 92.0132 49.94C97.4106 52.884 101.213 55.5827 103.421 58.036C105.691 60.4893 106.825 63.3107 106.825 66.5C106.825 70.3027 105.537 73.3387 102.961 75.608C100.385 77.8773 96.8279 79.012 92.2892 79.012ZM114.003 31.448H120.443V78H114.003V31.448ZM117.131 23.076C116.027 23.076 115.076 22.7387 114.279 22.064C113.543 21.3893 113.205 20.5307 113.267 19.488C113.267 18.384 113.635 17.464 114.371 16.728C115.168 15.9307 116.18 15.532 117.407 15.532C118.511 15.532 119.431 15.9 120.167 16.636C120.964 17.3107 121.363 18.1693 121.363 19.212C121.301 20.2547 120.872 21.1747 120.075 21.972C119.339 22.708 118.357 23.076 117.131 23.076ZM147.399 97.964C143.903 97.964 140.407 97.2893 136.911 95.94C133.415 94.5907 130.257 92.6893 127.435 90.236L130.011 87.108C131.361 85.3907 132.955 85.2373 134.795 86.648C137.555 88.9173 140.653 90.7573 144.087 92.168C147.522 93.64 150.742 94.376 153.747 94.376C156.139 94.376 158.163 93.916 159.819 92.996C161.537 92.076 162.395 90.7267 162.395 88.948C162.395 87.108 161.506 85.36 159.727 83.704C158.01 82.048 155.342 80.668 151.723 79.564C148.105 78.5213 143.658 78 138.383 78H135.163V76.712L151.355 67.236V68.34C149.638 68.7693 147.921 68.984 146.203 68.984C142.585 68.984 139.334 68.2173 136.451 66.684C133.63 65.0893 131.422 62.912 129.827 60.152C128.233 57.3307 127.435 54.172 127.435 50.676C127.435 46.996 128.325 43.6227 130.103 40.556C131.943 37.428 134.397 34.9747 137.463 33.196C140.591 31.356 144.026 30.436 147.767 30.436C148.871 30.436 150.619 30.5893 153.011 30.896C156.078 31.264 158.593 31.448 160.555 31.448H169.755V33.38H153.931L155.035 32.368C158.654 33.9013 161.383 36.14 163.223 39.084C165.125 42.028 166.075 45.4013 166.075 49.204C166.075 52.8227 165.278 56.1347 163.683 59.14C162.089 62.084 159.881 64.384 157.059 66.04L141.971 74.872V74.044C143.811 73.9213 145.406 73.86 146.755 73.86C152.766 73.86 157.458 74.872 160.831 76.896C164.266 78.92 165.983 81.68 165.983 85.176C165.983 87.8133 165.063 90.0827 163.223 91.984C161.445 93.8853 159.145 95.3573 156.323 96.4C153.502 97.4427 150.527 97.964 147.399 97.964ZM150.343 66.5C152.061 66.5 153.717 66.04 155.311 65.12C156.967 64.2 158.286 62.8813 159.267 61.164C160.31 59.3853 160.831 57.3307 160.831 55C160.831 51.8107 159.973 48.5293 158.255 45.156C156.599 41.7213 154.422 38.8693 151.723 36.6C149.025 34.2693 146.265 33.104 143.443 33.104C141.665 33.104 139.947 33.564 138.291 34.484C136.697 35.404 135.409 36.7533 134.427 38.532C133.446 40.2493 132.955 42.304 132.955 44.696C132.955 47.8853 133.783 51.1973 135.439 54.632C137.157 58.0053 139.365 60.8267 142.063 63.096C144.823 65.3653 147.583 66.5 150.343 66.5ZM206.735 47.916C206.735 43.1933 205.876 39.82 204.159 37.796C202.503 35.7107 200.264 34.668 197.443 34.668C195.112 34.668 192.69 35.404 190.175 36.876C187.722 38.348 184.808 40.832 181.435 44.328V42.764C184.931 38.5933 188.212 35.496 191.279 33.472C194.346 31.448 197.412 30.436 200.479 30.436C204.036 30.436 207.042 31.816 209.495 34.576C211.948 37.336 213.175 41.9053 213.175 48.284V78H206.735V47.916ZM175.823 14.06L182.263 13.048V78H175.823V14.06ZM231.859 79.012C228.854 79.012 226.646 77.9693 225.235 75.884C223.824 73.7373 223.119 70.3947 223.119 65.856L223.211 33.288H219.347V32.184L229.651 20.316V31.448H248.051V33.288H229.651V68.616C229.651 71.928 229.866 74.228 230.295 75.516C230.786 76.7427 231.614 77.356 232.779 77.356C234.19 77.356 235.907 76.436 237.931 74.596C240.016 72.6947 242.071 70.1187 244.095 66.868C244.463 66.3773 244.892 66.1013 245.383 66.04C245.874 65.9173 246.303 66.0093 246.671 66.316C247.039 66.6227 247.223 67.1133 247.223 67.788V74.044C245.199 75.332 242.715 76.4973 239.771 77.54C236.888 78.5213 234.251 79.012 231.859 79.012ZM269.156 79.012C265.782 79.012 262.593 78.4293 259.588 77.264C256.582 76.0987 253.945 74.7493 251.676 73.216L250.664 67.328C250.602 66.7147 250.694 66.224 250.94 65.856C251.246 65.488 251.645 65.304 252.136 65.304C252.626 65.2427 253.117 65.396 253.608 65.764C256.736 68.5853 260.14 70.9467 263.82 72.848C267.5 74.688 270.842 75.608 273.848 75.608C276.056 75.608 277.865 75.056 279.276 73.952C280.686 72.848 281.392 71.4067 281.392 69.628C281.392 68.0947 280.87 66.684 279.828 65.396C278.785 64.108 277.252 62.7893 275.228 61.44C273.204 60.0907 270.352 58.3733 266.672 56.288C263.482 54.448 260.937 52.8533 259.036 51.504C257.134 50.1547 255.601 48.652 254.436 46.996C253.27 45.2787 252.688 43.3467 252.688 41.2C252.688 38.0107 253.945 35.4347 256.46 33.472C258.974 31.448 262.532 30.436 267.132 30.436C271.18 30.436 275.565 31.2947 280.288 33.012L281.024 37.98C281.146 38.716 281.054 39.2987 280.748 39.728C280.502 40.1573 280.104 40.4027 279.552 40.464C279.061 40.464 278.54 40.2493 277.988 39.82C275.289 37.796 272.621 36.14 269.984 34.852C267.408 33.564 264.985 32.92 262.716 32.92C260.63 32.92 258.974 33.38 257.748 34.3C256.521 35.22 255.908 36.4467 255.908 37.98C255.908 40.0653 257.012 42.028 259.22 43.868C261.489 45.708 264.709 47.732 268.88 49.94C274.277 52.884 278.08 55.5827 280.288 58.036C282.557 60.4893 283.692 63.3107 283.692 66.5C283.692 70.3027 282.404 73.3387 279.828 75.608C277.252 77.8773 273.694 79.012 269.156 79.012ZM308.989 33.472H303.745V31.448H308.989V30.068C308.989 26.0813 309.848 22.8307 311.565 20.316C313.283 17.74 315.307 15.9 317.637 14.796C320.029 13.6307 322.268 12.9867 324.353 12.864L325.089 17.924C325.273 18.844 325.059 19.6107 324.445 20.224C323.893 20.776 323.096 20.9293 322.053 20.684C320.704 20.3773 319.477 20.224 318.373 20.224C316.227 20.224 314.509 20.6227 313.221 21.42C311.995 22.2173 311.381 23.3827 311.381 24.916C311.32 25.836 311.657 26.9093 312.393 28.136C313.129 29.3627 314.049 30.4667 315.153 31.448H324.445V33.472H315.429V78H308.989V33.472ZM345.741 79.012C341.57 79.012 337.859 78.0307 334.609 76.068C331.358 74.044 328.813 71.3147 326.973 67.88C325.194 64.384 324.305 60.4587 324.305 56.104C324.305 51.4427 325.317 47.1493 327.341 43.224C329.365 39.2987 332.155 36.2013 335.713 33.932C339.331 31.6013 343.287 30.436 347.581 30.436C351.567 30.436 355.155 31.448 358.345 33.472C361.534 35.4347 364.018 38.1947 365.797 41.752C367.637 45.3093 368.557 49.388 368.557 53.988C368.557 58.7107 367.575 62.9733 365.613 66.776C363.65 70.5787 360.921 73.584 357.425 75.792C353.99 77.9387 350.095 79.012 345.741 79.012ZM350.709 75.608C353.346 75.608 355.707 74.9333 357.793 73.584C359.878 72.2347 361.473 70.3947 362.577 68.064C363.681 65.7333 364.233 63.096 364.233 60.152C364.233 56.104 363.19 52.0867 361.105 48.1C359.081 44.052 356.382 40.7093 353.009 38.072C349.635 35.4347 346.139 34.116 342.521 34.116C339.883 34.116 337.522 34.7907 335.437 36.14C333.351 37.4893 331.726 39.3293 330.561 41.66C329.457 43.9907 328.905 46.628 328.905 49.572C328.905 53.62 329.947 57.6987 332.033 61.808C334.118 65.856 336.847 69.168 340.221 71.744C343.594 74.32 347.09 75.608 350.709 75.608ZM381.887 44.512C384.831 40.2187 387.959 36.876 391.271 34.484C394.583 32.0307 398.079 30.804 401.759 30.804V35.312C401.759 36.3547 401.453 37.1213 400.839 37.612C400.287 38.1027 399.521 38.3173 398.539 38.256C395.595 38.072 392.651 38.5933 389.707 39.82C386.825 41.0467 384.218 43.04 381.887 45.8V44.512ZM376.459 44.88L374.987 31.908L381.335 30.896L382.899 43.96V78H376.459V44.88Z" fill="#00EEFF"/>
<path d="M437.304 24.824L436.936 24.64L427.092 13.6H436.568L487.72 75.056L486.984 76.068C486.003 53.252 484.101 33.6253 481.28 17.188C481.096 16.1453 481.28 15.2867 481.832 14.612C482.384 13.876 483.212 13.508 484.316 13.508L490.02 13.6L488.088 78H481.464L437.304 24.824ZM436.568 22.524H437.396C438.009 31.9693 438.715 40.9853 439.512 49.572C440.371 58.0973 441.413 66.3467 442.64 74.32C442.824 75.4853 442.64 76.4053 442.088 77.08C441.536 77.6933 440.677 78 439.512 78H433.9L436.568 22.524ZM521.848 29.608H521.664L513.752 13.6H521.848L551.656 78H544.204L521.848 29.608ZM494.708 78L522.492 26.756H523.596C519.67 35.22 516.174 43.5307 513.108 51.688C510.102 59.784 507.557 67.512 505.472 74.872C505.165 75.8533 504.644 76.62 503.908 77.172C503.233 77.724 502.344 78 501.24 78H494.708ZM507.588 62.36H539.144V64.2H507.588V62.36ZM566.388 14.244L567.86 15.256C567.063 15.1947 566.235 15.1333 565.376 15.072C562.677 15.072 559.611 15.716 556.176 17.004C552.741 18.2307 549.307 20.0093 545.872 22.34C545.32 22.7693 544.737 22.9227 544.124 22.8C543.511 22.6773 543.051 22.34 542.744 21.788C542.499 21.236 542.499 20.5613 542.744 19.764L544.952 13.6H594.632L596.748 19.764C597.055 20.5613 597.055 21.236 596.748 21.788C596.503 22.34 596.073 22.6773 595.46 22.8C594.908 22.9227 594.356 22.7693 593.804 22.34C590.308 20.0093 586.812 18.2307 583.316 17.004C579.881 15.716 576.876 15.072 574.3 15.072C573.38 15.072 572.583 15.1333 571.908 15.256L573.472 14.244V78H566.388V14.244ZM623.649 79.012C619.171 79.012 615.215 78 611.781 75.976C608.407 73.952 605.77 71.008 603.869 67.144C602.029 63.2187 601.109 58.588 601.109 53.252V13.6H608.193V52.792C608.193 57.8827 609.021 62.2067 610.677 65.764C612.333 69.26 614.571 71.8973 617.393 73.676C620.275 75.4547 623.557 76.344 627.237 76.344C633.37 76.344 637.725 74.2587 640.301 70.088C642.938 65.9173 644.287 60.7347 644.349 54.54C644.349 51.412 644.103 46.8427 643.613 40.832C643.122 34.76 642.294 26.8787 641.129 17.188C641.006 16.1453 641.251 15.2867 641.865 14.612C642.478 13.876 643.337 13.508 644.441 13.508L649.593 13.6L648.581 52.056C648.458 57.5147 647.293 62.2987 645.085 66.408C642.877 70.456 639.902 73.584 636.161 75.792C632.481 77.9387 628.31 79.012 623.649 79.012ZM659.332 13.6H672.672C678.56 13.6 683.466 14.52 687.392 16.36C691.317 18.2 694.23 20.7147 696.132 23.904C698.033 27.032 698.984 30.5587 698.984 34.484C698.984 39.1453 697.757 43.1933 695.304 46.628C692.912 50.0013 689.661 52.608 685.552 54.448C681.442 56.2267 676.934 57.116 672.028 57.116H665.128V55C666.906 55.2453 668.808 55.368 670.832 55.368C677.946 55.368 683.16 53.6507 686.472 50.216C689.784 46.7813 691.44 42.2733 691.44 36.692C691.378 32.276 690.397 28.4427 688.496 25.192C686.594 21.9413 684.018 19.4573 680.768 17.74C677.578 16.0227 674.082 15.1333 670.28 15.072C668.072 15.1333 666.14 15.256 664.484 15.44L666.416 14.336V78H659.332V13.6ZM676.536 55.828L683.436 53.988L702.388 78H693.832L676.536 55.828ZM708.882 13.6H745.13L747.43 19.764C747.737 20.6227 747.737 21.3587 747.43 21.972C747.124 22.524 746.633 22.8613 745.958 22.984C745.345 23.0453 744.732 22.8613 744.118 22.432C740.132 19.9787 735.9 18.1387 731.422 16.912C726.945 15.6853 722.652 15.072 718.542 15.072C717.193 15.1333 715.813 15.164 714.402 15.164L715.966 14.152V77.264L714.862 76.252C716.334 76.3747 718.389 76.436 721.026 76.436C724.461 76.436 728.264 75.884 732.434 74.78C736.605 73.6147 741.082 71.7747 745.866 69.26C746.602 68.7693 747.308 68.6467 747.982 68.892C748.718 69.076 749.209 69.4747 749.454 70.088C749.7 70.7013 749.608 71.4067 749.178 72.204L746.51 78H708.882V13.6ZM713.942 54.816L729.858 39.912H736.298C737.218 39.912 737.862 40.188 738.23 40.74C738.66 41.292 738.752 41.9053 738.506 42.58C738.261 43.1933 737.74 43.6227 736.942 43.868C731.913 45.524 727.65 47.3027 724.154 49.204C720.72 51.044 717.285 53.4667 713.85 56.472L713.942 54.816Z" fill="#EFEFEF"/>
</svg>
