<svg width="688" height="99" viewBox="0 0 688 99" fill="none" xmlns="http://www.w3.org/2000/svg">
<path d="M7.87021 14.4018H14.9542V78.8018H7.87021V14.4018ZM57.4949 48.7178C57.4949 43.9951 56.6362 40.6218 54.9189 38.5978C53.2629 36.5124 50.9935 35.4698 48.1109 35.4698C45.9029 35.4698 43.5722 36.2364 41.1189 37.7698C38.6655 39.2418 35.8442 41.7258 32.6549 45.2218L32.5629 43.4738C35.9975 39.3031 39.1869 36.2364 42.1309 34.2738C45.1362 32.2498 48.1415 31.2378 51.1469 31.2378C54.7655 31.2378 57.8015 32.6178 60.2549 35.3778C62.7082 38.1378 63.9349 42.7071 63.9349 49.0858V78.8018H57.4949V48.7178ZM26.9509 44.8538L25.6629 32.7098L32.0109 31.6978L33.4829 43.8418V78.8018H26.9509V44.8538ZM88.7892 79.8138C85.4159 79.8138 82.2266 79.2311 79.2212 78.0658C76.2159 76.9004 73.5786 75.5511 71.3092 74.0178L70.2972 68.1298C70.2359 67.5164 70.3279 67.0258 70.5732 66.6578C70.8799 66.2898 71.2786 66.1058 71.7692 66.1058C72.2599 66.0444 72.7506 66.1978 73.2412 66.5658C76.3692 69.3871 79.7732 71.7484 83.4532 73.6498C87.1332 75.4898 90.4759 76.4098 93.4812 76.4098C95.6892 76.4098 97.4986 75.8578 98.9092 74.7538C100.32 73.6498 101.025 72.2084 101.025 70.4298C101.025 68.8964 100.504 67.4858 99.4612 66.1978C98.4186 64.9098 96.8852 63.5911 94.8612 62.2418C92.8372 60.8924 89.9852 59.1751 86.3052 57.0898C83.1159 55.2498 80.5706 53.6551 78.6692 52.3058C76.7679 50.9564 75.2346 49.4538 74.0692 47.7978C72.9039 46.0804 72.3212 44.1484 72.3212 42.0018C72.3212 38.8124 73.5786 36.2364 76.0932 34.2738C78.6079 32.2498 82.1652 31.2378 86.7652 31.2378C90.8132 31.2378 95.1986 32.0964 99.9212 33.8138L100.657 38.7818C100.78 39.5178 100.688 40.1004 100.381 40.5298C100.136 40.9591 99.7372 41.2044 99.1852 41.2658C98.6946 41.2658 98.1732 41.0511 97.6212 40.6218C94.9226 38.5978 92.2546 36.9418 89.6172 35.6538C87.0412 34.3658 84.6186 33.7218 82.3492 33.7218C80.2639 33.7218 78.6079 34.1818 77.3812 35.1018C76.1546 36.0218 75.5412 37.2484 75.5412 38.7818C75.5412 40.8671 76.6452 42.8298 78.8532 44.6698C81.1226 46.5098 84.3426 48.5338 88.5132 50.7418C93.9106 53.6858 97.7132 56.3844 99.9212 58.8378C102.191 61.2911 103.325 64.1124 103.325 67.3018C103.325 71.1044 102.037 74.1404 99.4612 76.4098C96.8852 78.6791 93.3279 79.8138 88.7892 79.8138ZM110.503 32.2498H116.943V78.8018H110.503V32.2498ZM113.631 23.8778C112.527 23.8778 111.576 23.5404 110.779 22.8658C110.043 22.1911 109.705 21.3324 109.767 20.2898C109.767 19.1858 110.135 18.2658 110.871 17.5298C111.668 16.7324 112.68 16.3338 113.907 16.3338C115.011 16.3338 115.931 16.7018 116.667 17.4378C117.464 18.1124 117.863 18.9711 117.863 20.0138C117.801 21.0564 117.372 21.9764 116.575 22.7738C115.839 23.5098 114.857 23.8778 113.631 23.8778ZM143.899 98.7658C140.403 98.7658 136.907 98.0911 133.411 96.7418C129.915 95.3924 126.757 93.4911 123.935 91.0378L126.511 87.9098C127.861 86.1924 129.455 86.0391 131.295 87.4498C134.055 89.7191 137.153 91.5591 140.587 92.9698C144.022 94.4418 147.242 95.1778 150.247 95.1778C152.639 95.1778 154.663 94.7178 156.319 93.7978C158.037 92.8778 158.895 91.5284 158.895 89.7498C158.895 87.9098 158.006 86.1618 156.227 84.5058C154.51 82.8498 151.842 81.4698 148.223 80.3658C144.605 79.3231 140.158 78.8018 134.883 78.8018H131.663V77.5138L147.855 68.0378V69.1418C146.138 69.5711 144.421 69.7858 142.703 69.7858C139.085 69.7858 135.834 69.0191 132.951 67.4858C130.13 65.8911 127.922 63.7138 126.327 60.9538C124.733 58.1324 123.935 54.9738 123.935 51.4778C123.935 47.7978 124.825 44.4244 126.603 41.3578C128.443 38.2298 130.897 35.7764 133.963 33.9978C137.091 32.1578 140.526 31.2378 144.267 31.2378C145.371 31.2378 147.119 31.3911 149.511 31.6978C152.578 32.0658 155.093 32.2498 157.055 32.2498H166.255V34.1818H150.431L151.535 33.1698C155.154 34.7031 157.883 36.9418 159.723 39.8858C161.625 42.8298 162.575 46.2031 162.575 50.0058C162.575 53.6244 161.778 56.9364 160.183 59.9418C158.589 62.8858 156.381 65.1858 153.559 66.8418L138.471 75.6738V74.8458C140.311 74.7231 141.906 74.6618 143.255 74.6618C149.266 74.6618 153.958 75.6738 157.331 77.6978C160.766 79.7218 162.483 82.4818 162.483 85.9778C162.483 88.6151 161.563 90.8844 159.723 92.7858C157.945 94.6871 155.645 96.1591 152.823 97.2018C150.002 98.2444 147.027 98.7658 143.899 98.7658ZM146.843 67.3018C148.561 67.3018 150.217 66.8418 151.811 65.9218C153.467 65.0018 154.786 63.6831 155.767 61.9658C156.81 60.1871 157.331 58.1324 157.331 55.8018C157.331 52.6124 156.473 49.3311 154.755 45.9578C153.099 42.5231 150.922 39.6711 148.223 37.4018C145.525 35.0711 142.765 33.9058 139.943 33.9058C138.165 33.9058 136.447 34.3658 134.791 35.2858C133.197 36.2058 131.909 37.5551 130.927 39.3338C129.946 41.0511 129.455 43.1058 129.455 45.4978C129.455 48.6871 130.283 51.9991 131.939 55.4338C133.657 58.8071 135.865 61.6284 138.563 63.8978C141.323 66.1671 144.083 67.3018 146.843 67.3018ZM203.235 48.7178C203.235 43.9951 202.376 40.6218 200.659 38.5978C199.003 36.5124 196.764 35.4698 193.943 35.4698C191.612 35.4698 189.19 36.2058 186.675 37.6778C184.222 39.1498 181.308 41.6338 177.935 45.1298V43.5658C181.431 39.3951 184.712 36.2978 187.779 34.2738C190.846 32.2498 193.912 31.2378 196.979 31.2378C200.536 31.2378 203.542 32.6178 205.995 35.3778C208.448 38.1378 209.675 42.7071 209.675 49.0858V78.8018H203.235V48.7178ZM172.323 14.8618L178.763 13.8498V78.8018H172.323V14.8618ZM228.359 79.8138C225.354 79.8138 223.146 78.7711 221.735 76.6858C220.324 74.5391 219.619 71.1964 219.619 66.6578L219.711 34.0898H215.847V32.9858L226.151 21.1178V32.2498H244.551V34.0898H226.151V69.4178C226.151 72.7298 226.366 75.0298 226.795 76.3178C227.286 77.5444 228.114 78.1578 229.279 78.1578C230.69 78.1578 232.407 77.2378 234.431 75.3978C236.516 73.4964 238.571 70.9204 240.595 67.6698C240.963 67.1791 241.392 66.9031 241.883 66.8418C242.374 66.7191 242.803 66.8111 243.171 67.1178C243.539 67.4244 243.723 67.9151 243.723 68.5898V74.8458C241.699 76.1338 239.215 77.2991 236.271 78.3418C233.388 79.3231 230.751 79.8138 228.359 79.8138ZM265.656 79.8138C262.282 79.8138 259.093 79.2311 256.088 78.0658C253.082 76.9004 250.445 75.5511 248.176 74.0178L247.164 68.1298C247.102 67.5164 247.194 67.0258 247.44 66.6578C247.746 66.2898 248.145 66.1058 248.636 66.1058C249.126 66.0444 249.617 66.1978 250.108 66.5658C253.236 69.3871 256.64 71.7484 260.32 73.6498C264 75.4898 267.342 76.4098 270.348 76.4098C272.556 76.4098 274.365 75.8578 275.776 74.7538C277.186 73.6498 277.892 72.2084 277.892 70.4298C277.892 68.8964 277.37 67.4858 276.328 66.1978C275.285 64.9098 273.752 63.5911 271.728 62.2418C269.704 60.8924 266.852 59.1751 263.172 57.0898C259.982 55.2498 257.437 53.6551 255.536 52.3058C253.634 50.9564 252.101 49.4538 250.936 47.7978C249.77 46.0804 249.188 44.1484 249.188 42.0018C249.188 38.8124 250.445 36.2364 252.96 34.2738C255.474 32.2498 259.032 31.2378 263.632 31.2378C267.68 31.2378 272.065 32.0964 276.788 33.8138L277.524 38.7818C277.646 39.5178 277.554 40.1004 277.248 40.5298C277.002 40.9591 276.604 41.2044 276.052 41.2658C275.561 41.2658 275.04 41.0511 274.488 40.6218C271.789 38.5978 269.121 36.9418 266.484 35.6538C263.908 34.3658 261.485 33.7218 259.216 33.7218C257.13 33.7218 255.474 34.1818 254.248 35.1018C253.021 36.0218 252.408 37.2484 252.408 38.7818C252.408 40.8671 253.512 42.8298 255.72 44.6698C257.989 46.5098 261.209 48.5338 265.38 50.7418C270.777 53.6858 274.58 56.3844 276.788 58.8378C279.057 61.2911 280.192 64.1124 280.192 67.3018C280.192 71.1044 278.904 74.1404 276.328 76.4098C273.752 78.6791 270.194 79.8138 265.656 79.8138ZM305.489 34.2738H300.245V32.2498H305.489V30.8698C305.489 26.8831 306.348 23.6324 308.065 21.1178C309.783 18.5418 311.807 16.7018 314.137 15.5978C316.529 14.4324 318.768 13.7884 320.853 13.6658L321.589 18.7258C321.773 19.6458 321.559 20.4124 320.945 21.0258C320.393 21.5778 319.596 21.7311 318.553 21.4858C317.204 21.1791 315.977 21.0258 314.873 21.0258C312.727 21.0258 311.009 21.4244 309.721 22.2218C308.495 23.0191 307.881 24.1844 307.881 25.7178C307.82 26.6378 308.157 27.7111 308.893 28.9378C309.629 30.1644 310.549 31.2684 311.653 32.2498H320.945V34.2738H311.929V78.8018H305.489V34.2738ZM342.241 79.8138C338.07 79.8138 334.359 78.8324 331.109 76.8698C327.858 74.8458 325.313 72.1164 323.473 68.6818C321.694 65.1858 320.805 61.2604 320.805 56.9058C320.805 52.2444 321.817 47.9511 323.841 44.0258C325.865 40.1004 328.655 37.0031 332.213 34.7338C335.831 32.4031 339.787 31.2378 344.081 31.2378C348.067 31.2378 351.655 32.2498 354.845 34.2738C358.034 36.2364 360.518 38.9964 362.297 42.5538C364.137 46.1111 365.057 50.1898 365.057 54.7898C365.057 59.5124 364.075 63.7751 362.113 67.5778C360.15 71.3804 357.421 74.3858 353.925 76.5938C350.49 78.7404 346.595 79.8138 342.241 79.8138ZM347.209 76.4098C349.846 76.4098 352.207 75.7351 354.293 74.3858C356.378 73.0364 357.973 71.1964 359.077 68.8658C360.181 66.5351 360.733 63.8978 360.733 60.9538C360.733 56.9058 359.69 52.8884 357.605 48.9018C355.581 44.8538 352.882 41.5111 349.509 38.8738C346.135 36.2364 342.639 34.9178 339.021 34.9178C336.383 34.9178 334.022 35.5924 331.937 36.9418C329.851 38.2911 328.226 40.1311 327.061 42.4618C325.957 44.7924 325.405 47.4298 325.405 50.3738C325.405 54.4218 326.447 58.5004 328.533 62.6098C330.618 66.6578 333.347 69.9698 336.721 72.5458C340.094 75.1218 343.59 76.4098 347.209 76.4098ZM378.387 45.3138C381.331 41.0204 384.459 37.6778 387.771 35.2858C391.083 32.8324 394.579 31.6058 398.259 31.6058V36.1138C398.259 37.1564 397.953 37.9231 397.339 38.4138C396.787 38.9044 396.021 39.1191 395.039 39.0578C392.095 38.8738 389.151 39.3951 386.207 40.6218C383.325 41.8484 380.718 43.8418 378.387 46.6018V45.3138ZM372.959 45.6818L371.487 32.7098L377.835 31.6978L379.399 44.7618V78.8018H372.959V45.6818Z" fill="white"/>
<path d="M433.804 25.6258L433.436 25.4418L423.592 14.4018H433.068L484.22 75.8578L483.484 76.8698C482.503 54.0538 480.601 34.4271 477.78 17.9898C477.596 16.9471 477.78 16.0884 478.332 15.4138C478.884 14.6778 479.712 14.3098 480.816 14.3098L486.52 14.4018L484.588 78.8018H477.964L433.804 25.6258ZM433.068 23.3258H433.896C434.509 32.7711 435.215 41.7871 436.012 50.3738C436.871 58.8991 437.913 67.1484 439.14 75.1218C439.324 76.2871 439.14 77.2071 438.588 77.8818C438.036 78.4951 437.177 78.8018 436.012 78.8018H430.4L433.068 23.3258ZM522.396 68.1298V45.3138C522.396 41.3884 521.936 38.3218 521.016 36.1138C520.157 33.9058 518.501 32.8018 516.048 32.8018C514.208 32.8018 511.877 33.6911 509.056 35.4698C506.296 37.1871 503.444 39.6404 500.5 42.8298C499.948 43.3818 499.365 43.6884 498.752 43.7498C498.2 43.7498 497.74 43.5044 497.372 43.0138C497.065 42.5231 496.942 41.9098 497.004 41.1738L497.924 35.8378C500.193 34.6724 503.014 33.6298 506.388 32.7098C509.761 31.7284 512.705 31.2378 515.22 31.2378C519.881 31.2378 523.316 32.7098 525.524 35.6538C527.793 38.5364 528.928 42.8298 528.928 48.5338L528.836 67.2098L530.952 78.8018H524.42L522.396 68.1298ZM505.284 79.7218C501.481 79.7218 498.506 78.6791 496.36 76.5938C494.213 74.4471 493.14 71.8098 493.14 68.6818C493.14 66.2284 493.906 64.0204 495.44 62.0578C496.973 60.0338 498.905 58.2858 501.236 56.8138C503.566 55.2804 506.541 53.6551 510.16 51.9378L512.92 50.5578L524.052 45.3138V47.2458L511.08 53.4098C507.952 54.8818 505.253 56.6298 502.984 58.6538C500.714 60.6164 499.58 63.0391 499.58 65.9218C499.58 68.3138 500.469 70.3684 502.248 72.0858C504.088 73.8031 506.48 74.6618 509.424 74.6618C512.122 74.6618 514.637 73.9258 516.968 72.4538C519.298 70.9818 521.292 69.0498 522.948 66.6578L523.776 67.4858C521.384 71.1044 518.716 74.0484 515.772 76.3178C512.828 78.5871 509.332 79.7218 505.284 79.7218ZM547.927 79.8138C544.922 79.8138 542.714 78.7711 541.303 76.6858C539.892 74.5391 539.187 71.1964 539.187 66.6578L539.279 34.0898H535.415V32.9858L545.719 21.1178V32.2498H564.119V34.0898H545.719V69.4178C545.719 72.7298 545.934 75.0298 546.363 76.3178C546.854 77.5444 547.682 78.1578 548.847 78.1578C550.258 78.1578 551.975 77.2378 553.999 75.3978C556.084 73.4964 558.139 70.9204 560.163 67.6698C560.531 67.1791 560.96 66.9031 561.451 66.8418C561.942 66.7191 562.371 66.8111 562.739 67.1178C563.107 67.4244 563.291 67.9151 563.291 68.5898V74.8458C561.267 76.1338 558.783 77.2991 555.839 78.3418C552.956 79.3231 550.319 79.8138 547.927 79.8138ZM582.464 79.8138C578.906 79.8138 575.901 78.4338 573.448 75.6738C570.994 72.9138 569.768 68.3444 569.768 61.9658V32.2498H576.208V62.3338C576.208 67.1178 577.036 70.5218 578.692 72.5458C580.409 74.5698 582.678 75.5818 585.5 75.5818C587.769 75.5818 590.161 74.8458 592.676 73.3738C595.19 71.9018 598.104 69.3871 601.416 65.8298V67.5778C597.981 71.7484 594.73 74.8458 591.664 76.8698C588.597 78.8324 585.53 79.8138 582.464 79.8138ZM600.128 67.2098V32.2498H606.66V66.1978L608.684 78.8018H602.152L600.128 67.2098ZM623.604 45.3138C626.548 41.0204 629.676 37.6778 632.988 35.2858C636.3 32.8324 639.796 31.6058 643.476 31.6058V36.1138C643.476 37.1564 643.17 37.9231 642.556 38.4138C642.004 38.9044 641.238 39.1191 640.256 39.0578C637.312 38.8738 634.368 39.3951 631.424 40.6218C628.542 41.8484 625.935 43.8418 623.604 46.6018V45.3138ZM618.176 45.6818L616.704 32.7098L623.052 31.6978L624.616 44.7618V78.8018H618.176V45.6818ZM665.899 79.8138C661.79 79.8138 658.079 78.8324 654.767 76.8698C651.516 74.9071 649.002 72.1778 647.223 68.6818C645.444 65.1858 644.555 61.2298 644.555 56.8138C644.555 52.2138 645.536 47.9511 647.499 44.0258C649.462 40.1004 652.13 37.0031 655.503 34.7338C658.938 32.4031 662.74 31.2378 666.911 31.2378C670.284 31.2378 673.29 32.0044 675.927 33.5378C678.564 35.0711 680.588 37.1258 681.999 39.7018C683.471 42.2778 684.207 45.0684 684.207 48.0738C684.207 49.6071 683.992 50.7418 683.563 51.4778C683.134 52.1524 682.551 52.6124 681.815 52.8578C681.14 53.0418 680.22 53.1338 679.055 53.1338H648.879V51.2938H680.527L677.215 52.5818L677.307 50.7418C677.307 47.9818 676.786 45.2831 675.743 42.6458C674.7 40.0084 673.167 37.8311 671.143 36.1138C669.119 34.3964 666.696 33.5378 663.875 33.5378C661.176 33.5378 658.815 34.3351 656.791 35.9298C654.767 37.4631 653.203 39.6098 652.099 42.3698C650.995 45.1298 650.443 48.1658 650.443 51.4778C650.443 55.2804 651.179 59.0524 652.651 62.7938C654.184 66.4738 656.362 69.5404 659.183 71.9938C662.066 74.3858 665.439 75.5818 669.303 75.5818C671.695 75.5818 674.056 75.0911 676.387 74.1098C678.718 73.0671 680.834 71.6564 682.735 69.8778L683.471 70.8898C680.895 73.8338 678.196 76.0724 675.375 77.6058C672.554 79.0778 669.395 79.8138 665.899 79.8138Z" fill="#00EEFF"/>
</svg>
