<svg width="756" height="98" viewBox="0 0 756 98" fill="none" xmlns="http://www.w3.org/2000/svg">
<path d="M41.8702 13.6H48.9542V78H41.8702V13.6ZM91.4949 47.916C91.4949 43.1933 90.6362 39.82 88.9189 37.796C87.2629 35.7107 84.9935 34.668 82.1109 34.668C79.9029 34.668 77.5722 35.4347 75.1189 36.968C72.6655 38.44 69.8442 40.924 66.6549 44.42L66.5629 42.672C69.9975 38.5013 73.1869 35.4347 76.1309 33.472C79.1362 31.448 82.1415 30.436 85.1469 30.436C88.7655 30.436 91.8015 31.816 94.2549 34.576C96.7082 37.336 97.9349 41.9053 97.9349 48.284V78H91.4949V47.916ZM60.9509 44.052L59.6629 31.908L66.0109 30.896L67.4829 43.04V78H60.9509V44.052ZM122.789 79.012C119.416 79.012 116.227 78.4293 113.221 77.264C110.216 76.0987 107.579 74.7493 105.309 73.216L104.297 67.328C104.236 66.7147 104.328 66.224 104.573 65.856C104.88 65.488 105.279 65.304 105.769 65.304C106.26 65.2427 106.751 65.396 107.241 65.764C110.369 68.5853 113.773 70.9467 117.453 72.848C121.133 74.688 124.476 75.608 127.481 75.608C129.689 75.608 131.499 75.056 132.909 73.952C134.32 72.848 135.025 71.4067 135.025 69.628C135.025 68.0947 134.504 66.684 133.461 65.396C132.419 64.108 130.885 62.7893 128.861 61.44C126.837 60.0907 123.985 58.3733 120.305 56.288C117.116 54.448 114.571 52.8533 112.669 51.504C110.768 50.1547 109.235 48.652 108.069 46.996C106.904 45.2787 106.321 43.3467 106.321 41.2C106.321 38.0107 107.579 35.4347 110.093 33.472C112.608 31.448 116.165 30.436 120.765 30.436C124.813 30.436 129.199 31.2947 133.921 33.012L134.657 37.98C134.78 38.716 134.688 39.2987 134.381 39.728C134.136 40.1573 133.737 40.4027 133.185 40.464C132.695 40.464 132.173 40.2493 131.621 39.82C128.923 37.796 126.255 36.14 123.617 34.852C121.041 33.564 118.619 32.92 116.349 32.92C114.264 32.92 112.608 33.38 111.381 34.3C110.155 35.22 109.541 36.4467 109.541 37.98C109.541 40.0653 110.645 42.028 112.853 43.868C115.123 45.708 118.343 47.732 122.513 49.94C127.911 52.884 131.713 55.5827 133.921 58.036C136.191 60.4893 137.325 63.3107 137.325 66.5C137.325 70.3027 136.037 73.3387 133.461 75.608C130.885 77.8773 127.328 79.012 122.789 79.012ZM144.503 31.448H150.943V78H144.503V31.448ZM147.631 23.076C146.527 23.076 145.576 22.7387 144.779 22.064C144.043 21.3893 143.705 20.5307 143.767 19.488C143.767 18.384 144.135 17.464 144.871 16.728C145.668 15.9307 146.68 15.532 147.907 15.532C149.011 15.532 149.931 15.9 150.667 16.636C151.464 17.3107 151.863 18.1693 151.863 19.212C151.801 20.2547 151.372 21.1747 150.575 21.972C149.839 22.708 148.857 23.076 147.631 23.076ZM177.899 97.964C174.403 97.964 170.907 97.2893 167.411 95.94C163.915 94.5907 160.757 92.6893 157.935 90.236L160.511 87.108C161.861 85.3907 163.455 85.2373 165.295 86.648C168.055 88.9173 171.153 90.7573 174.587 92.168C178.022 93.64 181.242 94.376 184.247 94.376C186.639 94.376 188.663 93.916 190.319 92.996C192.037 92.076 192.895 90.7267 192.895 88.948C192.895 87.108 192.006 85.36 190.227 83.704C188.51 82.048 185.842 80.668 182.223 79.564C178.605 78.5213 174.158 78 168.883 78H165.663V76.712L181.855 67.236V68.34C180.138 68.7693 178.421 68.984 176.703 68.984C173.085 68.984 169.834 68.2173 166.951 66.684C164.13 65.0893 161.922 62.912 160.327 60.152C158.733 57.3307 157.935 54.172 157.935 50.676C157.935 46.996 158.825 43.6227 160.603 40.556C162.443 37.428 164.897 34.9747 167.963 33.196C171.091 31.356 174.526 30.436 178.267 30.436C179.371 30.436 181.119 30.5893 183.511 30.896C186.578 31.264 189.093 31.448 191.055 31.448H200.255V33.38H184.431L185.535 32.368C189.154 33.9013 191.883 36.14 193.723 39.084C195.625 42.028 196.575 45.4013 196.575 49.204C196.575 52.8227 195.778 56.1347 194.183 59.14C192.589 62.084 190.381 64.384 187.559 66.04L172.471 74.872V74.044C174.311 73.9213 175.906 73.86 177.255 73.86C183.266 73.86 187.958 74.872 191.331 76.896C194.766 78.92 196.483 81.68 196.483 85.176C196.483 87.8133 195.563 90.0827 193.723 91.984C191.945 93.8853 189.645 95.3573 186.823 96.4C184.002 97.4427 181.027 97.964 177.899 97.964ZM180.843 66.5C182.561 66.5 184.217 66.04 185.811 65.12C187.467 64.2 188.786 62.8813 189.767 61.164C190.81 59.3853 191.331 57.3307 191.331 55C191.331 51.8107 190.473 48.5293 188.755 45.156C187.099 41.7213 184.922 38.8693 182.223 36.6C179.525 34.2693 176.765 33.104 173.943 33.104C172.165 33.104 170.447 33.564 168.791 34.484C167.197 35.404 165.909 36.7533 164.927 38.532C163.946 40.2493 163.455 42.304 163.455 44.696C163.455 47.8853 164.283 51.1973 165.939 54.632C167.657 58.0053 169.865 60.8267 172.563 63.096C175.323 65.3653 178.083 66.5 180.843 66.5ZM237.235 47.916C237.235 43.1933 236.376 39.82 234.659 37.796C233.003 35.7107 230.764 34.668 227.943 34.668C225.612 34.668 223.19 35.404 220.675 36.876C218.222 38.348 215.308 40.832 211.935 44.328V42.764C215.431 38.5933 218.712 35.496 221.779 33.472C224.846 31.448 227.912 30.436 230.979 30.436C234.536 30.436 237.542 31.816 239.995 34.576C242.448 37.336 243.675 41.9053 243.675 48.284V78H237.235V47.916ZM206.323 14.06L212.763 13.048V78H206.323V14.06ZM262.359 79.012C259.354 79.012 257.146 77.9693 255.735 75.884C254.324 73.7373 253.619 70.3947 253.619 65.856L253.711 33.288H249.847V32.184L260.151 20.316V31.448H278.551V33.288H260.151V68.616C260.151 71.928 260.366 74.228 260.795 75.516C261.286 76.7427 262.114 77.356 263.279 77.356C264.69 77.356 266.407 76.436 268.431 74.596C270.516 72.6947 272.571 70.1187 274.595 66.868C274.963 66.3773 275.392 66.1013 275.883 66.04C276.374 65.9173 276.803 66.0093 277.171 66.316C277.539 66.6227 277.723 67.1133 277.723 67.788V74.044C275.699 75.332 273.215 76.4973 270.271 77.54C267.388 78.5213 264.751 79.012 262.359 79.012ZM299.656 79.012C296.282 79.012 293.093 78.4293 290.088 77.264C287.082 76.0987 284.445 74.7493 282.176 73.216L281.164 67.328C281.102 66.7147 281.194 66.224 281.44 65.856C281.746 65.488 282.145 65.304 282.636 65.304C283.126 65.2427 283.617 65.396 284.108 65.764C287.236 68.5853 290.64 70.9467 294.32 72.848C298 74.688 301.342 75.608 304.348 75.608C306.556 75.608 308.365 75.056 309.776 73.952C311.186 72.848 311.892 71.4067 311.892 69.628C311.892 68.0947 311.37 66.684 310.328 65.396C309.285 64.108 307.752 62.7893 305.728 61.44C303.704 60.0907 300.852 58.3733 297.172 56.288C293.982 54.448 291.437 52.8533 289.536 51.504C287.634 50.1547 286.101 48.652 284.936 46.996C283.77 45.2787 283.188 43.3467 283.188 41.2C283.188 38.0107 284.445 35.4347 286.96 33.472C289.474 31.448 293.032 30.436 297.632 30.436C301.68 30.436 306.065 31.2947 310.788 33.012L311.524 37.98C311.646 38.716 311.554 39.2987 311.248 39.728C311.002 40.1573 310.604 40.4027 310.052 40.464C309.561 40.464 309.04 40.2493 308.488 39.82C305.789 37.796 303.121 36.14 300.484 34.852C297.908 33.564 295.485 32.92 293.216 32.92C291.13 32.92 289.474 33.38 288.248 34.3C287.021 35.22 286.408 36.4467 286.408 37.98C286.408 40.0653 287.512 42.028 289.72 43.868C291.989 45.708 295.209 47.732 299.38 49.94C304.777 52.884 308.58 55.5827 310.788 58.036C313.057 60.4893 314.192 63.3107 314.192 66.5C314.192 70.3027 312.904 73.3387 310.328 75.608C307.752 77.8773 304.194 79.012 299.656 79.012ZM339.489 33.472H334.245V31.448H339.489V30.068C339.489 26.0813 340.348 22.8307 342.065 20.316C343.783 17.74 345.807 15.9 348.137 14.796C350.529 13.6307 352.768 12.9867 354.853 12.864L355.589 17.924C355.773 18.844 355.559 19.6107 354.945 20.224C354.393 20.776 353.596 20.9293 352.553 20.684C351.204 20.3773 349.977 20.224 348.873 20.224C346.727 20.224 345.009 20.6227 343.721 21.42C342.495 22.2173 341.881 23.3827 341.881 24.916C341.82 25.836 342.157 26.9093 342.893 28.136C343.629 29.3627 344.549 30.4667 345.653 31.448H354.945V33.472H345.929V78H339.489V33.472ZM376.241 79.012C372.07 79.012 368.359 78.0307 365.109 76.068C361.858 74.044 359.313 71.3147 357.473 67.88C355.694 64.384 354.805 60.4587 354.805 56.104C354.805 51.4427 355.817 47.1493 357.841 43.224C359.865 39.2987 362.655 36.2013 366.213 33.932C369.831 31.6013 373.787 30.436 378.081 30.436C382.067 30.436 385.655 31.448 388.845 33.472C392.034 35.4347 394.518 38.1947 396.297 41.752C398.137 45.3093 399.057 49.388 399.057 53.988C399.057 58.7107 398.075 62.9733 396.113 66.776C394.15 70.5787 391.421 73.584 387.925 75.792C384.49 77.9387 380.595 79.012 376.241 79.012ZM381.209 75.608C383.846 75.608 386.207 74.9333 388.293 73.584C390.378 72.2347 391.973 70.3947 393.077 68.064C394.181 65.7333 394.733 63.096 394.733 60.152C394.733 56.104 393.69 52.0867 391.605 48.1C389.581 44.052 386.882 40.7093 383.509 38.072C380.135 35.4347 376.639 34.116 373.021 34.116C370.383 34.116 368.022 34.7907 365.937 36.14C363.851 37.4893 362.226 39.3293 361.061 41.66C359.957 43.9907 359.405 46.628 359.405 49.572C359.405 53.62 360.447 57.6987 362.533 61.808C364.618 65.856 367.347 69.168 370.721 71.744C374.094 74.32 377.59 75.608 381.209 75.608ZM412.387 44.512C415.331 40.2187 418.459 36.876 421.771 34.484C425.083 32.0307 428.579 30.804 432.259 30.804V35.312C432.259 36.3547 431.953 37.1213 431.339 37.612C430.787 38.1027 430.021 38.3173 429.039 38.256C426.095 38.072 423.151 38.5933 420.207 39.82C417.325 41.0467 414.718 43.04 412.387 45.8V44.512ZM406.959 44.88L405.487 31.908L411.835 30.896L413.399 43.96V78H406.959V44.88Z" fill="#00EEFF"/>
<path d="M467.804 24.824L467.436 24.64L457.592 13.6H467.068L518.22 75.056L517.484 76.068C516.503 53.252 514.601 33.6253 511.78 17.188C511.596 16.1453 511.78 15.2867 512.332 14.612C512.884 13.876 513.712 13.508 514.816 13.508L520.52 13.6L518.588 78H511.964L467.804 24.824ZM467.068 22.524H467.896C468.509 31.9693 469.215 40.9853 470.012 49.572C470.871 58.0973 471.913 66.3467 473.14 74.32C473.324 75.4853 473.14 76.4053 472.588 77.08C472.036 77.6933 471.177 78 470.012 78H464.4L467.068 22.524ZM556.396 67.328V44.512C556.396 40.5867 555.936 37.52 555.016 35.312C554.157 33.104 552.501 32 550.048 32C548.208 32 545.877 32.8893 543.056 34.668C540.296 36.3853 537.444 38.8387 534.5 42.028C533.948 42.58 533.365 42.8867 532.752 42.948C532.2 42.948 531.74 42.7027 531.372 42.212C531.065 41.7213 530.942 41.108 531.004 40.372L531.924 35.036C534.193 33.8707 537.014 32.828 540.388 31.908C543.761 30.9267 546.705 30.436 549.22 30.436C553.881 30.436 557.316 31.908 559.524 34.852C561.793 37.7347 562.928 42.028 562.928 47.732L562.836 66.408L564.952 78H558.42L556.396 67.328ZM539.284 78.92C535.481 78.92 532.506 77.8773 530.36 75.792C528.213 73.6453 527.14 71.008 527.14 67.88C527.14 65.4267 527.906 63.2187 529.44 61.256C530.973 59.232 532.905 57.484 535.236 56.012C537.566 54.4787 540.541 52.8533 544.16 51.136L546.92 49.756L558.052 44.512V46.444L545.08 52.608C541.952 54.08 539.253 55.828 536.984 57.852C534.714 59.8147 533.58 62.2373 533.58 65.12C533.58 67.512 534.469 69.5667 536.248 71.284C538.088 73.0013 540.48 73.86 543.424 73.86C546.122 73.86 548.637 73.124 550.968 71.652C553.298 70.18 555.292 68.248 556.948 65.856L557.776 66.684C555.384 70.3027 552.716 73.2467 549.772 75.516C546.828 77.7853 543.332 78.92 539.284 78.92ZM581.927 79.012C578.922 79.012 576.714 77.9693 575.303 75.884C573.892 73.7373 573.187 70.3947 573.187 65.856L573.279 33.288H569.415V32.184L579.719 20.316V31.448H598.119V33.288H579.719V68.616C579.719 71.928 579.934 74.228 580.363 75.516C580.854 76.7427 581.682 77.356 582.847 77.356C584.258 77.356 585.975 76.436 587.999 74.596C590.084 72.6947 592.139 70.1187 594.163 66.868C594.531 66.3773 594.96 66.1013 595.451 66.04C595.942 65.9173 596.371 66.0093 596.739 66.316C597.107 66.6227 597.291 67.1133 597.291 67.788V74.044C595.267 75.332 592.783 76.4973 589.839 77.54C586.956 78.5213 584.319 79.012 581.927 79.012ZM616.464 79.012C612.906 79.012 609.901 77.632 607.448 74.872C604.994 72.112 603.768 67.5427 603.768 61.164V31.448H610.208V61.532C610.208 66.316 611.036 69.72 612.692 71.744C614.409 73.768 616.678 74.78 619.5 74.78C621.769 74.78 624.161 74.044 626.676 72.572C629.19 71.1 632.104 68.5853 635.416 65.028V66.776C631.981 70.9467 628.73 74.044 625.664 76.068C622.597 78.0307 619.53 79.012 616.464 79.012ZM634.128 66.408V31.448H640.66V65.396L642.684 78H636.152L634.128 66.408ZM657.604 44.512C660.548 40.2187 663.676 36.876 666.988 34.484C670.3 32.0307 673.796 30.804 677.476 30.804V35.312C677.476 36.3547 677.17 37.1213 676.556 37.612C676.004 38.1027 675.238 38.3173 674.256 38.256C671.312 38.072 668.368 38.5933 665.424 39.82C662.542 41.0467 659.935 43.04 657.604 45.8V44.512ZM652.176 44.88L650.704 31.908L657.052 30.896L658.616 43.96V78H652.176V44.88ZM699.899 79.012C695.79 79.012 692.079 78.0307 688.767 76.068C685.516 74.1053 683.002 71.376 681.223 67.88C679.444 64.384 678.555 60.428 678.555 56.012C678.555 51.412 679.536 47.1493 681.499 43.224C683.462 39.2987 686.13 36.2013 689.503 33.932C692.938 31.6013 696.74 30.436 700.911 30.436C704.284 30.436 707.29 31.2027 709.927 32.736C712.564 34.2693 714.588 36.324 715.999 38.9C717.471 41.476 718.207 44.2667 718.207 47.272C718.207 48.8053 717.992 49.94 717.563 50.676C717.134 51.3507 716.551 51.8107 715.815 52.056C715.14 52.24 714.22 52.332 713.055 52.332H682.879V50.492H714.527L711.215 51.78L711.307 49.94C711.307 47.18 710.786 44.4813 709.743 41.844C708.7 39.2067 707.167 37.0293 705.143 35.312C703.119 33.5947 700.696 32.736 697.875 32.736C695.176 32.736 692.815 33.5333 690.791 35.128C688.767 36.6613 687.203 38.808 686.099 41.568C684.995 44.328 684.443 47.364 684.443 50.676C684.443 54.4787 685.179 58.2507 686.651 61.992C688.184 65.672 690.362 68.7387 693.183 71.192C696.066 73.584 699.439 74.78 703.303 74.78C705.695 74.78 708.056 74.2893 710.387 73.308C712.718 72.2653 714.834 70.8547 716.735 69.076L717.471 70.088C714.895 73.032 712.196 75.2707 709.375 76.804C706.554 78.276 703.395 79.012 699.899 79.012Z" fill="#EFEFEF"/>
</svg>
