<svg width="300" height="98" viewBox="0 0 300 98" fill="none" xmlns="http://www.w3.org/2000/svg">
<path d="M176.941 60.9524C175.992 59.1848 174.382 57.3271 172.109 55.3742C169.84 53.4213 166.648 51.1529 162.535 48.5666C157.257 45.2968 153.456 42.4826 151.133 40.1342C148.812 37.7857 147.65 35.5324 147.65 33.3667C147.65 31.5165 148.389 29.9867 149.869 28.7724C151.343 27.5606 153.296 26.9547 155.722 26.9547C158.416 26.9547 161.448 27.6382 164.828 29.0103C168.203 30.3823 171.315 32.0973 174.169 34.1579C174.485 34.4233 174.825 34.5284 175.198 34.4733C175.566 34.4233 175.854 34.248 176.067 33.9601C176.277 33.6671 176.333 33.3392 176.225 32.9711L175.897 30.3773C175.749 29.2056 175.629 28.0739 175.301 26.9372C175.076 26.1485 174.805 25.3699 174.492 24.6113C173.879 23.1116 173.103 21.682 172.196 20.34C167.622 13.5875 160.236 9.79442 152.823 6.94772C144.123 3.60528 134.936 1.43208 125.66 0.503207C124.318 0.368008 122.974 0.260349 121.629 0.180231C113.983 -0.280449 106.262 0.130157 98.7431 1.62737C95.6986 2.23326 92.6917 3.01942 89.7473 4.00337C82.6719 6.36936 76.3425 10.7008 71.4002 16.2665C65.7244 22.6584 62.2993 30.853 60.1261 39.0276C57.655 48.3213 56.2354 57.8528 53.7367 67.139C53.3311 68.6438 52.908 70.1435 52.4598 71.6332C52.0817 72.8825 51.6711 74.1218 51.3106 75.3762C51.2205 75.6891 51.1128 75.9971 51.0127 76.3051C50.9676 76.4403 50.925 76.578 50.8825 76.7157C50.7998 76.9735 50.7172 77.2314 50.6346 77.4893C45.0263 60.1262 39.4155 42.7606 33.8073 25.3974C32.0347 25.3999 30.262 25.4024 28.4894 25.405C29.9215 29.4659 31.3536 33.5244 32.7858 37.5854C33.1363 38.5819 33.4918 39.5934 33.5394 40.6499C33.5995 41.8943 33.2289 43.1161 32.8634 44.3078C29.5385 55.1563 26.2136 66.0024 22.8861 76.8509C16.9724 59.7006 11.0612 42.5502 5.14747 25.3999C3.43244 25.3999 1.71991 25.3999 0.00488281 25.3999L19.4761 80.8117C20.6654 80.8117 21.8546 80.8117 23.0439 80.8117L34.5959 42.9884L46.9467 80.8142C48.1384 80.8267 49.3277 80.8392 50.5194 80.8518C54.2599 69.7429 58.0355 58.644 61.6609 47.4975C64.1145 39.9614 66.7609 32.4003 70.9496 25.6278C75.4537 18.3445 81.8131 12.0202 89.6221 8.3573C90.1704 8.09942 90.7263 7.85405 91.2846 7.62371C102.681 2.90926 115.505 2.42354 127.658 3.26729C135.252 3.79557 142.876 4.83961 150.141 7.18306C153.892 8.39235 157.54 9.95716 160.94 11.9576C164.152 13.8479 167.522 16.1012 169.653 19.2233C171.177 21.4566 172.219 24.1656 172.159 26.8997C170.885 26.3939 169.58 25.9483 168.233 25.5777C165.652 24.8617 163.113 24.5061 160.634 24.5061C157.472 24.5061 154.741 25.0244 152.442 26.0484C150.146 27.0799 148.394 28.4519 147.177 30.1645C145.963 31.882 145.359 33.7673 145.359 35.8253C145.359 37.6731 145.742 39.3881 146.506 40.9729C147.27 42.5578 148.774 44.3754 151.018 46.4335C153.259 48.489 156.543 50.8926 160.87 53.6366C164.933 56.278 167.97 58.3335 169.971 59.8107C171.976 61.2904 173.561 62.8602 174.723 64.5227C175.882 66.1876 176.463 68.0454 176.463 70.1009C176.463 72.5846 175.581 74.5725 173.814 76.0797C172.046 77.5819 169.683 78.333 166.728 78.333C163.246 78.333 159.553 77.3566 155.647 75.4037C151.741 73.4509 148.076 70.9196 144.643 67.805C144.275 67.5446 143.905 67.4094 143.537 67.4094C143.169 67.4094 142.863 67.5672 142.628 67.8876C142.39 68.2031 142.295 68.5711 142.35 68.9943L143.141 73.7463C145.94 76.0146 149 77.8774 152.325 79.3245C155.65 80.7767 159.132 81.5027 162.773 81.5027C165.94 81.5027 168.699 80.8943 171.047 79.68C173.396 78.4708 175.191 76.7632 176.428 74.5725C177.67 72.3868 178.318 69.813 178.366 66.8561C178.366 64.6929 177.892 62.725 176.943 60.9574L176.941 60.9524ZM187.502 27.6082C186.022 27.6082 184.825 28.8075 184.825 30.2847C184.825 31.7618 186.022 32.9611 187.502 32.9611C188.981 32.9611 190.178 31.7618 190.178 30.2847C190.178 28.805 188.981 27.6082 187.502 27.6082ZM75.9344 27.6082C74.4572 27.6082 73.258 28.8075 73.258 30.2847C73.258 31.7618 74.4572 32.9611 75.9344 32.9611C77.4141 32.9611 78.6109 31.7618 78.6109 30.2847C78.6109 28.805 77.4141 27.6082 75.9344 27.6082ZM300 41.9969V40.6474H284.167V31.5465L276.568 41.2058V41.9969H279.655V70.5716C279.602 74.3196 280.141 77.0762 281.28 78.8463C282.414 80.6139 284.197 81.4952 286.62 81.4952C288.626 81.4952 290.859 81.0596 293.31 80.1908C295.761 79.317 297.809 78.3005 299.442 77.1413V72.6296C299.442 72.1564 299.299 71.8159 299.009 71.6031C298.716 71.3903 298.403 71.3102 298.06 71.3653C297.714 71.4204 297.411 71.6031 297.146 71.9186C295.406 74.5049 293.636 76.5479 291.841 78.0551C290.05 79.5574 288.466 80.3085 287.094 80.3085C286.037 80.3085 285.286 79.7426 284.835 78.6085C284.39 77.4743 284.164 75.4012 284.164 72.3943V41.9969H299.998H300ZM259.861 39.8588C257.275 39.8588 254.678 40.6875 252.064 42.35C249.623 43.8997 246.884 46.3784 243.872 49.7008V24.8942L239.441 25.6103V80.7015H243.872V51.0202C246.812 48.0509 249.343 45.9127 251.431 44.6859C253.677 43.3665 255.827 42.7055 257.883 42.7055C260.417 42.7055 262.462 43.6268 264.019 45.4771C265.577 47.3223 266.355 50.4344 266.355 54.8183V80.7015H270.867V54.9761C270.867 49.4329 269.796 45.5271 267.66 43.2613C265.522 40.9929 262.923 39.8588 259.863 39.8588H259.861ZM224.078 51.6512C225.505 54.5004 226.216 57.3245 226.216 60.1237C226.216 62.392 225.715 64.3699 224.714 66.0574C223.71 67.7499 222.418 69.0393 220.836 69.9357C219.251 70.8345 217.613 71.2801 215.929 71.2801C213.45 71.2801 211.034 70.3588 208.685 68.5136C206.337 66.6633 204.452 64.3149 203.027 61.4682C201.605 58.6165 200.889 55.7672 200.889 52.9205C200.889 50.5996 201.38 48.5917 202.356 46.9017C203.332 45.2142 204.609 43.9373 206.194 43.0635C207.779 42.1947 209.439 41.7591 211.184 41.7591C213.718 41.7591 216.141 42.6955 218.462 44.5657C220.783 46.441 222.661 48.8045 224.081 51.6512H224.078ZM218.617 40.1742C216.665 39.9614 215.242 39.8588 214.344 39.8588C211.126 39.8588 208.197 40.6374 205.558 42.1947C202.922 43.752 200.821 45.8476 199.269 48.484C197.712 51.1254 196.933 54.0547 196.933 57.272C196.933 60.2814 197.616 62.9729 198.989 65.3489C200.361 67.7249 202.258 69.5826 204.689 70.9271C207.115 72.2716 209.86 72.9476 212.922 72.9476C213.883 72.9476 214.844 72.8324 215.808 72.6672L203.583 79.7551V80.704H206.349C210.944 80.704 214.782 81.1397 217.866 82.0085C220.953 82.8823 223.262 84.0139 224.794 85.4135C226.324 86.8081 227.09 88.3303 227.09 89.9627C227.09 91.7579 226.244 93.1023 224.556 94.0037C222.864 94.9 220.888 95.3482 218.617 95.3482C215.926 95.3482 213.127 94.7272 210.225 93.4854C207.323 92.2486 204.687 90.6237 202.311 88.6157C200.991 87.5642 199.832 87.6668 198.828 88.9362L197.006 91.1495C199.382 93.2601 202.058 94.8975 205.04 96.0567C208.024 97.2184 211.041 97.7993 214.106 97.7993C216.64 97.7993 219.091 97.3887 221.467 96.575C223.843 95.7563 225.791 94.582 227.325 93.0523C228.855 91.5175 229.621 89.6197 229.621 87.3514C229.621 84.3419 228.142 81.9784 225.19 80.2659C222.233 78.5509 218.144 77.6921 212.919 77.6921C211.928 77.6921 210.781 77.7522 209.554 77.8398L222.178 70.4114C224.604 68.9843 226.492 66.9913 227.836 64.4325C229.181 61.8763 229.857 59.0371 229.857 55.925C229.857 52.6552 229.05 49.7258 227.44 47.137C226.096 44.9813 224.183 43.3089 221.755 42.072H233.019V40.6449H224.947C223.254 40.6449 221.146 40.4872 218.612 40.1717L218.617 40.1742ZM185.216 80.7015H189.725V40.6449H185.216V80.7015ZM131.231 70.9046C129.358 73.6712 127.483 75.6441 125.613 76.7833C123.66 77.97 121.654 78.5634 119.596 78.5634C116.429 78.5634 113.775 77.4918 111.637 75.3562C109.499 73.218 107.904 70.5691 106.85 67.4019C105.793 64.2347 105.265 61.0175 105.265 57.7477C105.265 53.2085 106.297 49.4329 108.352 46.4285C110.413 43.419 113.234 41.9168 116.825 41.9168C119.569 41.9168 122.035 42.723 124.226 44.3329C126.411 45.9377 128.131 48.0484 129.368 50.6622C130.61 53.2761 131.231 55.9525 131.231 58.6966V70.9046ZM135.663 25.0519L131.231 25.6854V48.6768C130.745 47.2697 130.142 45.9978 129.333 44.9588C127.906 43.1411 126.241 41.8317 124.343 41.0405C122.446 40.2494 120.52 39.8563 118.567 39.8563C115.61 39.8563 112.771 40.8427 110.06 42.8206C107.338 44.8011 105.16 47.5326 103.528 51.0127C101.89 54.4954 101.099 58.296 101.152 62.4146C101.152 66.0549 101.813 69.3122 103.132 72.1915C104.449 75.0657 106.299 77.3341 108.675 78.999C111.046 80.659 113.74 81.4902 116.747 81.4902C119.859 81.4902 122.698 80.6089 125.26 78.8413C127.661 77.1813 129.669 74.9481 131.351 72.2416L132.893 80.7015H137.405L135.663 70.6517V25.0519ZM88.881 80.7015H93.3126V24.8942L88.881 25.6103V80.7015ZM73.6836 80.7015H78.1928V40.6449H73.6836V80.7015Z" fill="white"/>
</svg>
